solid OpenSCAD_Model
  facet normal 0 1 0
    outer loop
      vertex 2 10.3 20
      vertex 8.1 10.3 20
      vertex 2 10.3 0
    endloop
  endfacet
  facet normal 0 1 0
    outer loop
      vertex 2 10.3 0
      vertex 8.1 10.3 20
      vertex 8.1 10.3 0
    endloop
  endfacet
  facet normal -1 0 0
    outer loop
      vertex 2 8.3 20
      vertex 2 10.3 20
      vertex 2 8.3 0
    endloop
  endfacet
  facet normal -1 0 0
    outer loop
      vertex 2 8.3 0
      vertex 2 10.3 20
      vertex 2 10.3 0
    endloop
  endfacet
  facet normal 0 0 -1
    outer loop
      vertex 0 8.3 0
      vertex 2 8.3 0
      vertex 0 3 0
    endloop
  endfacet
  facet normal 0 0 -1
    outer loop
      vertex 8.1 10.3 0
      vertex 2 8.3 0
      vertex 2 10.3 0
    endloop
  endfacet
  facet normal 0 0 -1
    outer loop
      vertex 0 3 0
      vertex 2 8.3 0
      vertex 8.1 10.3 0
    endloop
  endfacet
  facet normal 0 0 -1
    outer loop
      vertex 0 3 0
      vertex 8.1 10.3 0
      vertex 8.1 8.3 0
    endloop
  endfacet
  facet normal 0 0 -1
    outer loop
      vertex 0 3 0
      vertex 8.1 8.3 0
      vertex 10.1 8.3 0
    endloop
  endfacet
  facet normal 0 0 -1
    outer loop
      vertex 0 3 0
      vertex 10.1 8.3 0
      vertex 10.1 3 0
    endloop
  endfacet
  facet normal 0 0 -1
    outer loop
      vertex 0 3 0
      vertex 10.1 3 0
      vertex 7.1 0 0
    endloop
  endfacet
  facet normal 0 0 -1
    outer loop
      vertex 0 3 0
      vertex 7.1 0 0
      vertex 3 0 0
    endloop
  endfacet
  facet normal 1 0 0
    outer loop
      vertex 8.1 8.3 0
      vertex 8.1 10.3 0
      vertex 8.1 10.3 20
    endloop
  endfacet
  facet normal 1 0 0
    outer loop
      vertex 8.1 8.3 20
      vertex 8.1 8.3 0
      vertex 8.1 10.3 20
    endloop
  endfacet
  facet normal 0 0 1
    outer loop
      vertex 0 3 20
      vertex 3 0 20
      vertex 7.1 0 20
    endloop
  endfacet
  facet normal 0 0 1
    outer loop
      vertex 10.1 8.3 20
      vertex 0 3 20
      vertex 10.1 3 20
    endloop
  endfacet
  facet normal 0 0 1
    outer loop
      vertex 10.1 3 20
      vertex 0 3 20
      vertex 7.1 0 20
    endloop
  endfacet
  facet normal 0 0 1
    outer loop
      vertex 8.1 8.3 20
      vertex 0 3 20
      vertex 10.1 8.3 20
    endloop
  endfacet
  facet normal 0 0 1
    outer loop
      vertex 8.1 10.3 20
      vertex 0 3 20
      vertex 8.1 8.3 20
    endloop
  endfacet
  facet normal 0 0 1
    outer loop
      vertex 2 8.3 20
      vertex 0 3 20
      vertex 8.1 10.3 20
    endloop
  endfacet
  facet normal 0 0 1
    outer loop
      vertex 2 10.3 20
      vertex 2 8.3 20
      vertex 8.1 10.3 20
    endloop
  endfacet
  facet normal 0 0 1
    outer loop
      vertex 2 8.3 20
      vertex 0 8.3 20
      vertex 0 3 20
    endloop
  endfacet
  facet normal 0 1 0
    outer loop
      vertex 0 8.3 20
      vertex 2 8.3 20
      vertex 0 8.3 0
    endloop
  endfacet
  facet normal 0 1 0
    outer loop
      vertex 0 8.3 0
      vertex 2 8.3 20
      vertex 2 8.3 0
    endloop
  endfacet
  facet normal -0.707107 -0.707107 0
    outer loop
      vertex 0 3 0
      vertex 3 0 0
      vertex 3 0 20
    endloop
  endfacet
  facet normal -0.707107 -0.707107 0
    outer loop
      vertex 0 3 20
      vertex 0 3 0
      vertex 3 0 20
    endloop
  endfacet
  facet normal -1 0 0
    outer loop
      vertex 0 3 20
      vertex 0 8.3 20
      vertex 0 3 0
    endloop
  endfacet
  facet normal -1 0 0
    outer loop
      vertex 0 3 0
      vertex 0 8.3 20
      vertex 0 8.3 0
    endloop
  endfacet
  facet normal 0 -1 0
    outer loop
      vertex 3 0 0
      vertex 7.1 0 0
      vertex 7.1 0 20
    endloop
  endfacet
  facet normal 0 -1 0
    outer loop
      vertex 3 0 20
      vertex 3 0 0
      vertex 7.1 0 20
    endloop
  endfacet
  facet normal 0.707107 -0.707107 0
    outer loop
      vertex 7.1 0 0
      vertex 10.1 3 0
      vertex 10.1 3 20
    endloop
  endfacet
  facet normal 0.707107 -0.707107 0
    outer loop
      vertex 7.1 0 20
      vertex 7.1 0 0
      vertex 10.1 3 20
    endloop
  endfacet
  facet normal 1 0 0
    outer loop
      vertex 10.1 3 0
      vertex 10.1 8.3 0
      vertex 10.1 8.3 20
    endloop
  endfacet
  facet normal 1 0 0
    outer loop
      vertex 10.1 3 20
      vertex 10.1 3 0
      vertex 10.1 8.3 20
    endloop
  endfacet
  facet normal 0 1 0
    outer loop
      vertex 8.1 8.3 20
      vertex 10.1 8.3 20
      vertex 8.1 8.3 0
    endloop
  endfacet
  facet normal 0 1 0
    outer loop
      vertex 8.1 8.3 0
      vertex 10.1 8.3 20
      vertex 10.1 8.3 0
    endloop
  endfacet
  facet normal 0 1 0
    outer loop
      vertex 15 10.3 20
      vertex 21.1 10.3 20
      vertex 15 10.3 0
    endloop
  endfacet
  facet normal 0 1 0
    outer loop
      vertex 15 10.3 0
      vertex 21.1 10.3 20
      vertex 21.1 10.3 0
    endloop
  endfacet
  facet normal -1 0 0
    outer loop
      vertex 15 8.3 20
      vertex 15 10.3 20
      vertex 15 8.3 0
    endloop
  endfacet
  facet normal -1 0 0
    outer loop
      vertex 15 8.3 0
      vertex 15 10.3 20
      vertex 15 10.3 0
    endloop
  endfacet
  facet normal 0 0 -1
    outer loop
      vertex 13 8.3 0
      vertex 15 8.3 0
      vertex 13 3 0
    endloop
  endfacet
  facet normal 0 0 -1
    outer loop
      vertex 21.1 10.3 0
      vertex 15 8.3 0
      vertex 15 10.3 0
    endloop
  endfacet
  facet normal 0 0 -1
    outer loop
      vertex 13 3 0
      vertex 15 8.3 0
      vertex 21.1 10.3 0
    endloop
  endfacet
  facet normal 0 0 -1
    outer loop
      vertex 13 3 0
      vertex 21.1 10.3 0
      vertex 21.1 8.3 0
    endloop
  endfacet
  facet normal 0 0 -1
    outer loop
      vertex 13 3 0
      vertex 21.1 8.3 0
      vertex 23.1 8.3 0
    endloop
  endfacet
  facet normal 0 0 -1
    outer loop
      vertex 13 3 0
      vertex 23.1 8.3 0
      vertex 23.1 3 0
    endloop
  endfacet
  facet normal 0 0 -1
    outer loop
      vertex 13 3 0
      vertex 23.1 3 0
      vertex 20.1 0 0
    endloop
  endfacet
  facet normal 0 0 -1
    outer loop
      vertex 13 3 0
      vertex 20.1 0 0
      vertex 16 0 0
    endloop
  endfacet
  facet normal 1 0 0
    outer loop
      vertex 21.1 8.3 0
      vertex 21.1 10.3 0
      vertex 21.1 10.3 20
    endloop
  endfacet
  facet normal 1 0 0
    outer loop
      vertex 21.1 8.3 20
      vertex 21.1 8.3 0
      vertex 21.1 10.3 20
    endloop
  endfacet
  facet normal 0 0 1
    outer loop
      vertex 13 3 20
      vertex 16 0 20
      vertex 20.1 0 20
    endloop
  endfacet
  facet normal 0 0 1
    outer loop
      vertex 23.1 8.3 20
      vertex 13 3 20
      vertex 23.1 3 20
    endloop
  endfacet
  facet normal 0 0 1
    outer loop
      vertex 23.1 3 20
      vertex 13 3 20
      vertex 20.1 0 20
    endloop
  endfacet
  facet normal 0 0 1
    outer loop
      vertex 21.1 8.3 20
      vertex 13 3 20
      vertex 23.1 8.3 20
    endloop
  endfacet
  facet normal 0 0 1
    outer loop
      vertex 21.1 10.3 20
      vertex 13 3 20
      vertex 21.1 8.3 20
    endloop
  endfacet
  facet normal 0 0 1
    outer loop
      vertex 15 8.3 20
      vertex 13 3 20
      vertex 21.1 10.3 20
    endloop
  endfacet
  facet normal 0 0 1
    outer loop
      vertex 15 10.3 20
      vertex 15 8.3 20
      vertex 21.1 10.3 20
    endloop
  endfacet
  facet normal 0 0 1
    outer loop
      vertex 15 8.3 20
      vertex 13 8.3 20
      vertex 13 3 20
    endloop
  endfacet
  facet normal 0 1 0
    outer loop
      vertex 13 8.3 20
      vertex 15 8.3 20
      vertex 13 8.3 0
    endloop
  endfacet
  facet normal 0 1 0
    outer loop
      vertex 13 8.3 0
      vertex 15 8.3 20
      vertex 15 8.3 0
    endloop
  endfacet
  facet normal -0.707107 -0.707107 0
    outer loop
      vertex 13 3 0
      vertex 16 0 0
      vertex 16 0 20
    endloop
  endfacet
  facet normal -0.707107 -0.707107 0
    outer loop
      vertex 13 3 20
      vertex 13 3 0
      vertex 16 0 20
    endloop
  endfacet
  facet normal -1 0 0
    outer loop
      vertex 13 3 20
      vertex 13 8.3 20
      vertex 13 3 0
    endloop
  endfacet
  facet normal -1 0 0
    outer loop
      vertex 13 3 0
      vertex 13 8.3 20
      vertex 13 8.3 0
    endloop
  endfacet
  facet normal 0 -1 0
    outer loop
      vertex 16 0 0
      vertex 20.1 0 0
      vertex 20.1 0 20
    endloop
  endfacet
  facet normal 0 -1 0
    outer loop
      vertex 16 0 20
      vertex 16 0 0
      vertex 20.1 0 20
    endloop
  endfacet
  facet normal 0.707107 -0.707107 0
    outer loop
      vertex 20.1 0 0
      vertex 23.1 3 0
      vertex 23.1 3 20
    endloop
  endfacet
  facet normal 0.707107 -0.707107 0
    outer loop
      vertex 20.1 0 20
      vertex 20.1 0 0
      vertex 23.1 3 20
    endloop
  endfacet
  facet normal 1 0 0
    outer loop
      vertex 23.1 3 0
      vertex 23.1 8.3 0
      vertex 23.1 8.3 20
    endloop
  endfacet
  facet normal 1 0 0
    outer loop
      vertex 23.1 3 20
      vertex 23.1 3 0
      vertex 23.1 8.3 20
    endloop
  endfacet
  facet normal 0 1 0
    outer loop
      vertex 21.1 8.3 20
      vertex 23.1 8.3 20
      vertex 21.1 8.3 0
    endloop
  endfacet
  facet normal 0 1 0
    outer loop
      vertex 21.1 8.3 0
      vertex 23.1 8.3 20
      vertex 23.1 8.3 0
    endloop
  endfacet
  facet normal 0 1 0
    outer loop
      vertex 26 8.3 20
      vertex 28 8.3 20
      vertex 26 8.3 0
    endloop
  endfacet
  facet normal 0 1 0
    outer loop
      vertex 26 8.3 0
      vertex 28 8.3 20
      vertex 28 8.3 0
    endloop
  endfacet
  facet normal -1 0 0
    outer loop
      vertex 26 3 20
      vertex 26 8.3 20
      vertex 26 3 0
    endloop
  endfacet
  facet normal -1 0 0
    outer loop
      vertex 26 3 0
      vertex 26 8.3 20
      vertex 26 8.3 0
    endloop
  endfacet
  facet normal 0 0 -1
    outer loop
      vertex 26 8.3 0
      vertex 28 8.3 0
      vertex 26 3 0
    endloop
  endfacet
  facet normal 0 0 -1
    outer loop
      vertex 34.1 10.3 0
      vertex 28 8.3 0
      vertex 28 10.3 0
    endloop
  endfacet
  facet normal 0 0 -1
    outer loop
      vertex 26 3 0
      vertex 28 8.3 0
      vertex 34.1 10.3 0
    endloop
  endfacet
  facet normal 0 0 -1
    outer loop
      vertex 26 3 0
      vertex 34.1 10.3 0
      vertex 34.1 8.3 0
    endloop
  endfacet
  facet normal 0 0 -1
    outer loop
      vertex 26 3 0
      vertex 34.1 8.3 0
      vertex 36.1 8.3 0
    endloop
  endfacet
  facet normal 0 0 -1
    outer loop
      vertex 26 3 0
      vertex 36.1 8.3 0
      vertex 36.1 3 0
    endloop
  endfacet
  facet normal 0 0 -1
    outer loop
      vertex 26 3 0
      vertex 36.1 3 0
      vertex 33.1 0 0
    endloop
  endfacet
  facet normal 0 0 -1
    outer loop
      vertex 26 3 0
      vertex 33.1 0 0
      vertex 29 0 0
    endloop
  endfacet
  facet normal -1 0 0
    outer loop
      vertex 28 8.3 20
      vertex 28 10.3 20
      vertex 28 8.3 0
    endloop
  endfacet
  facet normal -1 0 0
    outer loop
      vertex 28 8.3 0
      vertex 28 10.3 20
      vertex 28 10.3 0
    endloop
  endfacet
  facet normal 0 0 1
    outer loop
      vertex 26 3 20
      vertex 29 0 20
      vertex 33.1 0 20
    endloop
  endfacet
  facet normal 0 0 1
    outer loop
      vertex 36.1 8.3 20
      vertex 26 3 20
      vertex 36.1 3 20
    endloop
  endfacet
  facet normal 0 0 1
    outer loop
      vertex 36.1 3 20
      vertex 26 3 20
      vertex 33.1 0 20
    endloop
  endfacet
  facet normal 0 0 1
    outer loop
      vertex 34.1 8.3 20
      vertex 26 3 20
      vertex 36.1 8.3 20
    endloop
  endfacet
  facet normal 0 0 1
    outer loop
      vertex 34.1 10.3 20
      vertex 26 3 20
      vertex 34.1 8.3 20
    endloop
  endfacet
  facet normal 0 0 1
    outer loop
      vertex 28 8.3 20
      vertex 26 3 20
      vertex 34.1 10.3 20
    endloop
  endfacet
  facet normal 0 0 1
    outer loop
      vertex 28 10.3 20
      vertex 28 8.3 20
      vertex 34.1 10.3 20
    endloop
  endfacet
  facet normal 0 0 1
    outer loop
      vertex 28 8.3 20
      vertex 26 8.3 20
      vertex 26 3 20
    endloop
  endfacet
  facet normal -0.707107 -0.707107 0
    outer loop
      vertex 26 3 0
      vertex 29 0 0
      vertex 29 0 20
    endloop
  endfacet
  facet normal -0.707107 -0.707107 0
    outer loop
      vertex 26 3 20
      vertex 26 3 0
      vertex 29 0 20
    endloop
  endfacet
  facet normal 0 -1 0
    outer loop
      vertex 29 0 0
      vertex 33.1 0 0
      vertex 33.1 0 20
    endloop
  endfacet
  facet normal 0 -1 0
    outer loop
      vertex 29 0 20
      vertex 29 0 0
      vertex 33.1 0 20
    endloop
  endfacet
  facet normal 0.707107 -0.707107 0
    outer loop
      vertex 33.1 0 0
      vertex 36.1 3 0
      vertex 36.1 3 20
    endloop
  endfacet
  facet normal 0.707107 -0.707107 0
    outer loop
      vertex 33.1 0 20
      vertex 33.1 0 0
      vertex 36.1 3 20
    endloop
  endfacet
  facet normal 1 0 0
    outer loop
      vertex 36.1 3 0
      vertex 36.1 8.3 0
      vertex 36.1 8.3 20
    endloop
  endfacet
  facet normal 1 0 0
    outer loop
      vertex 36.1 3 20
      vertex 36.1 3 0
      vertex 36.1 8.3 20
    endloop
  endfacet
  facet normal 0 1 0
    outer loop
      vertex 34.1 8.3 20
      vertex 36.1 8.3 20
      vertex 34.1 8.3 0
    endloop
  endfacet
  facet normal 0 1 0
    outer loop
      vertex 34.1 8.3 0
      vertex 36.1 8.3 20
      vertex 36.1 8.3 0
    endloop
  endfacet
  facet normal 1 0 0
    outer loop
      vertex 34.1 8.3 0
      vertex 34.1 10.3 0
      vertex 34.1 10.3 20
    endloop
  endfacet
  facet normal 1 0 0
    outer loop
      vertex 34.1 8.3 20
      vertex 34.1 8.3 0
      vertex 34.1 10.3 20
    endloop
  endfacet
  facet normal 0 1 0
    outer loop
      vertex 28 10.3 20
      vertex 34.1 10.3 20
      vertex 28 10.3 0
    endloop
  endfacet
  facet normal 0 1 0
    outer loop
      vertex 28 10.3 0
      vertex 34.1 10.3 20
      vertex 34.1 10.3 0
    endloop
  endfacet
  facet normal 0 1 0
    outer loop
      vertex 39 8.3 20
      vertex 41 8.3 20
      vertex 39 8.3 0
    endloop
  endfacet
  facet normal 0 1 0
    outer loop
      vertex 39 8.3 0
      vertex 41 8.3 20
      vertex 41 8.3 0
    endloop
  endfacet
  facet normal -1 0 0
    outer loop
      vertex 39 3 20
      vertex 39 8.3 20
      vertex 39 3 0
    endloop
  endfacet
  facet normal -1 0 0
    outer loop
      vertex 39 3 0
      vertex 39 8.3 20
      vertex 39 8.3 0
    endloop
  endfacet
  facet normal 0 0 -1
    outer loop
      vertex 39 8.3 0
      vertex 41 8.3 0
      vertex 39 3 0
    endloop
  endfacet
  facet normal 0 0 -1
    outer loop
      vertex 47.1 10.3 0
      vertex 41 8.3 0
      vertex 41 10.3 0
    endloop
  endfacet
  facet normal 0 0 -1
    outer loop
      vertex 39 3 0
      vertex 41 8.3 0
      vertex 47.1 10.3 0
    endloop
  endfacet
  facet normal 0 0 -1
    outer loop
      vertex 39 3 0
      vertex 47.1 10.3 0
      vertex 47.1 8.3 0
    endloop
  endfacet
  facet normal 0 0 -1
    outer loop
      vertex 39 3 0
      vertex 47.1 8.3 0
      vertex 49.1 8.3 0
    endloop
  endfacet
  facet normal 0 0 -1
    outer loop
      vertex 39 3 0
      vertex 49.1 8.3 0
      vertex 49.1 3 0
    endloop
  endfacet
  facet normal 0 0 -1
    outer loop
      vertex 39 3 0
      vertex 49.1 3 0
      vertex 46.1 0 0
    endloop
  endfacet
  facet normal 0 0 -1
    outer loop
      vertex 39 3 0
      vertex 46.1 0 0
      vertex 42 0 0
    endloop
  endfacet
  facet normal -1 0 0
    outer loop
      vertex 41 8.3 20
      vertex 41 10.3 20
      vertex 41 8.3 0
    endloop
  endfacet
  facet normal -1 0 0
    outer loop
      vertex 41 8.3 0
      vertex 41 10.3 20
      vertex 41 10.3 0
    endloop
  endfacet
  facet normal 0 0 1
    outer loop
      vertex 39 3 20
      vertex 42 0 20
      vertex 46.1 0 20
    endloop
  endfacet
  facet normal 0 0 1
    outer loop
      vertex 49.1 8.3 20
      vertex 39 3 20
      vertex 49.1 3 20
    endloop
  endfacet
  facet normal 0 0 1
    outer loop
      vertex 49.1 3 20
      vertex 39 3 20
      vertex 46.1 0 20
    endloop
  endfacet
  facet normal 0 0 1
    outer loop
      vertex 47.1 8.3 20
      vertex 39 3 20
      vertex 49.1 8.3 20
    endloop
  endfacet
  facet normal 0 0 1
    outer loop
      vertex 47.1 10.3 20
      vertex 39 3 20
      vertex 47.1 8.3 20
    endloop
  endfacet
  facet normal 0 0 1
    outer loop
      vertex 41 8.3 20
      vertex 39 3 20
      vertex 47.1 10.3 20
    endloop
  endfacet
  facet normal 0 0 1
    outer loop
      vertex 41 10.3 20
      vertex 41 8.3 20
      vertex 47.1 10.3 20
    endloop
  endfacet
  facet normal 0 0 1
    outer loop
      vertex 41 8.3 20
      vertex 39 8.3 20
      vertex 39 3 20
    endloop
  endfacet
  facet normal -0.707107 -0.707107 0
    outer loop
      vertex 39 3 0
      vertex 42 0 0
      vertex 42 0 20
    endloop
  endfacet
  facet normal -0.707107 -0.707107 0
    outer loop
      vertex 39 3 20
      vertex 39 3 0
      vertex 42 0 20
    endloop
  endfacet
  facet normal 0 -1 0
    outer loop
      vertex 42 0 0
      vertex 46.1 0 0
      vertex 46.1 0 20
    endloop
  endfacet
  facet normal 0 -1 0
    outer loop
      vertex 42 0 20
      vertex 42 0 0
      vertex 46.1 0 20
    endloop
  endfacet
  facet normal 0.707107 -0.707107 0
    outer loop
      vertex 46.1 0 0
      vertex 49.1 3 0
      vertex 49.1 3 20
    endloop
  endfacet
  facet normal 0.707107 -0.707107 0
    outer loop
      vertex 46.1 0 20
      vertex 46.1 0 0
      vertex 49.1 3 20
    endloop
  endfacet
  facet normal 1 0 0
    outer loop
      vertex 49.1 3 0
      vertex 49.1 8.3 0
      vertex 49.1 8.3 20
    endloop
  endfacet
  facet normal 1 0 0
    outer loop
      vertex 49.1 3 20
      vertex 49.1 3 0
      vertex 49.1 8.3 20
    endloop
  endfacet
  facet normal 0 1 0
    outer loop
      vertex 47.1 8.3 20
      vertex 49.1 8.3 20
      vertex 47.1 8.3 0
    endloop
  endfacet
  facet normal 0 1 0
    outer loop
      vertex 47.1 8.3 0
      vertex 49.1 8.3 20
      vertex 49.1 8.3 0
    endloop
  endfacet
  facet normal 1 0 0
    outer loop
      vertex 47.1 8.3 0
      vertex 47.1 10.3 0
      vertex 47.1 10.3 20
    endloop
  endfacet
  facet normal 1 0 0
    outer loop
      vertex 47.1 8.3 20
      vertex 47.1 8.3 0
      vertex 47.1 10.3 20
    endloop
  endfacet
  facet normal 0 1 0
    outer loop
      vertex 41 10.3 20
      vertex 47.1 10.3 20
      vertex 41 10.3 0
    endloop
  endfacet
  facet normal 0 1 0
    outer loop
      vertex 41 10.3 0
      vertex 47.1 10.3 20
      vertex 47.1 10.3 0
    endloop
  endfacet
endsolid OpenSCAD_Model
